<svg width="40" height="41" viewBox="0 0 40 41" fill="none" xmlns="http://www.w3.org/2000/svg">
<g clip-path="url(#clip0_5603_5946)">
<path d="M2.50001 3.05245C-0.643327 6.29252 6.57886e-06 9.73438 6.57886e-06 20.1906C6.57886e-06 28.8738 -1.52666 37.5785 6.46334 39.6278C8.95834 40.2645 31.065 40.2645 33.5567 39.6245C36.8833 38.7727 39.59 36.0949 39.96 31.4259C40.0117 30.7742 40.0117 9.61861 39.9583 8.95372C39.565 3.98031 36.48 1.11403 32.415 0.533492C31.4833 0.399523 31.2967 0.359828 26.5167 0.351558C9.56167 0.359828 5.84501 -0.389409 2.50001 3.05245Z" fill="url(#paint0_linear_5603_5946)"/>
<path d="M19.9967 5.54344C13.945 5.54344 8.19835 5.00922 6.00335 10.5995C5.09668 12.9085 5.22835 15.9071 5.22835 20.2007C5.22835 23.9684 5.10668 27.5095 6.00335 29.8002C8.19335 35.3938 13.9867 34.8579 19.9933 34.8579C25.7883 34.8579 31.7633 35.4567 33.985 29.8002C34.8933 27.4681 34.76 24.5142 34.76 20.2007C34.76 14.4747 35.0783 10.7782 32.28 8.00286C29.4467 5.19115 25.615 5.54344 19.99 5.54344H19.9967ZM18.6733 8.18479C31.2967 8.16494 32.9033 6.77232 32.0167 26.1185C31.7017 32.9609 26.4517 32.21 19.9983 32.21C8.23168 32.21 7.89335 31.8759 7.89335 20.1941C7.89335 8.37665 8.82668 8.19141 18.6733 8.18148V8.18479ZM27.88 10.6177C26.9017 10.6177 26.1083 11.405 26.1083 12.3759C26.1083 13.3467 26.9017 14.134 27.88 14.134C28.8583 14.134 29.6517 13.3467 29.6517 12.3759C29.6517 11.405 28.8583 10.6177 27.88 10.6177ZM19.9967 12.6736C15.8083 12.6736 12.4133 16.0443 12.4133 20.2007C12.4133 24.3571 15.8083 27.7261 19.9967 27.7261C24.185 27.7261 27.5783 24.3571 27.5783 20.2007C27.5783 16.0443 24.185 12.6736 19.9967 12.6736ZM19.9967 15.3149C26.505 15.3149 26.5133 25.0864 19.9967 25.0864C13.49 25.0864 13.48 15.3149 19.9967 15.3149Z" fill="white"/>
</g>
<defs>
<linearGradient id="paint0_linear_5603_5946" x1="2.57671" y1="37.5109" x2="39.5082" y2="5.30121" gradientUnits="userSpaceOnUse">
<stop stop-color="#FFDD55"/>
<stop offset="0.5" stop-color="#FF543E"/>
<stop offset="1" stop-color="#C837AB"/>
</linearGradient>
<clipPath id="clip0_5603_5946">
<rect width="40" height="39.6947" fill="white" transform="translate(0 0.351562)"/>
</clipPath>
</defs>
</svg>
