<svg width="40" height="41" viewBox="0 0 40 41" fill="none" xmlns="http://www.w3.org/2000/svg">
<g clip-path="url(#clip0_5603_5993)">
<path d="M14.7383 21.585C12.4183 21.585 10.5366 23.4666 10.5366 25.7866V36.2966C10.5366 38.6166 12.4183 40.4983 14.7383 40.4983C17.0583 40.4983 18.9399 38.6166 18.9399 36.2966V25.7866C18.9383 23.4666 17.0566 21.585 14.7383 21.585Z" fill="#E91E63"/>
<path d="M0.0317383 25.787C0.0317383 28.1087 1.91507 29.992 4.23674 29.992C6.5584 29.992 8.44174 28.1087 8.44174 25.787V21.582H4.24007C4.2384 21.582 4.2384 21.582 4.23674 21.582C1.91507 21.582 0.0317383 23.4654 0.0317383 25.787Z" fill="#E91E63"/>
<path d="M14.7432 0.498047C14.7415 0.498047 14.7399 0.498047 14.7382 0.498047C12.4165 0.498047 10.5332 2.38138 10.5332 4.70305C10.5332 7.02471 12.4165 8.90805 14.7382 8.90805H18.9399V4.70305C18.9399 4.70138 18.9399 4.69805 18.9399 4.69471C18.9382 2.37638 17.0599 0.498047 14.7432 0.498047Z" fill="#36C5F0"/>
<path d="M4.20842 19.45H14.7384C17.0601 19.45 18.9434 17.5667 18.9434 15.245C18.9434 12.9234 17.0601 11.04 14.7384 11.04H4.20842C1.88675 11.04 0.00341797 12.9234 0.00341797 15.245C0.00341797 17.5667 1.88675 19.45 4.20842 19.45Z" fill="#36C5F0"/>
<path d="M35.7616 11.0381C33.4433 11.0381 31.5649 12.9164 31.5649 15.2348V15.2431V19.4481H35.7666C38.0883 19.4481 39.9716 17.5648 39.9716 15.2431C39.9716 12.9214 38.0883 11.0381 35.7666 11.0381C35.7649 11.0381 35.7633 11.0381 35.7616 11.0381Z" fill="#4CAF50"/>
<path d="M21.0684 4.70362V15.2453C21.0684 17.5653 22.95 19.447 25.27 19.447C27.59 19.447 29.4717 17.5653 29.4717 15.2453V4.70362C29.4717 2.38362 27.59 0.501953 25.27 0.501953C22.95 0.501953 21.0684 2.38362 21.0684 4.70362Z" fill="#4CAF50"/>
<path d="M29.4702 36.2935C29.4702 33.9735 27.5886 32.0918 25.2686 32.0918H21.0669V36.2968C21.0686 38.6151 22.9486 40.4951 25.2686 40.4951C27.5886 40.4951 29.4702 38.6135 29.4702 36.2935Z" fill="#FF9800"/>
<path d="M35.7985 21.582H25.2685C22.9468 21.582 21.0635 23.4654 21.0635 25.787C21.0635 28.1087 22.9468 29.992 25.2685 29.992H35.7985C38.1202 29.992 40.0035 28.1087 40.0035 25.787C40.0035 23.4654 38.1202 21.582 35.7985 21.582Z" fill="#FF9800"/>
</g>
<defs>
<clipPath id="clip0_5603_5993">
<rect width="40" height="40" fill="white" transform="translate(0 0.5)"/>
</clipPath>
</defs>
</svg>
