<svg width="67" height="68" viewBox="0 0 67 68" fill="none" xmlns="http://www.w3.org/2000/svg">
<path d="M36.2374 8.15557C30.0404 6.83837 23.5856 7.5168 17.7979 10.0936C12.0103 12.6705 7.18693 17.0134 4.01924 22.5C0.851551 27.9866 -0.497884 34.3352 0.164342 40.6358C0.826569 46.9365 3.46646 52.8658 7.70565 57.5739C11.9448 62.282 17.5657 65.5272 23.7626 66.8444C29.9596 68.1616 36.4144 67.4832 42.2021 64.9064C47.9897 62.3295 52.8131 57.9866 55.9808 52.5C59.1484 47.0134 60.4979 40.6648 59.8357 34.3641L30 37.5L36.2374 8.15557Z" fill="#9374FF"/>
<path d="M42.1654 1.31256C48.7516 2.82575 54.6896 6.38514 59.1285 11.4806C63.5673 16.576 66.2792 22.9459 66.8753 29.6773L35 32.5L42.1654 1.31256Z" fill="#FFDC60"/>
</svg>
