<svg width="237" height="103" viewBox="0 0 237 103" fill="none" xmlns="http://www.w3.org/2000/svg">
<path opacity="0.4" d="M29.6922 74.2204C19.0769 74.2204 9.38454 79.9632 1 102H236V1C225.819 1 216.154 19.664 205.344 19.664C195.385 19.664 192.544 31.2414 188.462 31.2414C184.769 31.2414 182.923 28.7568 180.154 28.7568C177.385 28.7568 177.385 41.678 171.846 41.678C168.154 41.678 164.462 37.8495 158.462 37.8495C152.462 37.8495 148.736 48.3779 143.692 48.3779C130.308 48.3779 136.308 26.8425 127.538 26.8425C120.154 26.8425 118.769 39.7638 110.462 39.7638C99.8461 39.7638 102.615 22.0568 95.6923 22.0568C86.923 22.0568 92.0016 52.2064 77.6923 52.2064C66.1538 52.2064 65.4377 61.7149 59.2307 61.7777C53.0237 61.8406 46.7692 56.0526 41.2307 56.0526C32.923 56.0526 38.923 74.2204 29.6922 74.2204Z" fill="url(#paint0_linear_5603_5976)"/>
<path d="M1 102C9.38454 79.9632 19.0769 74.2204 29.6922 74.2204C38.923 74.2204 32.923 56.0526 41.2307 56.0526C46.7692 56.0526 53.0237 61.8406 59.2307 61.7777C65.4377 61.7149 66.1538 52.2064 77.6923 52.2064C92.0016 52.2064 86.923 22.0568 95.6923 22.0568C102.615 22.0568 99.8461 39.7638 110.462 39.7638C118.769 39.7638 120.154 26.8425 127.538 26.8425C136.308 26.8425 130.308 48.3779 143.692 48.3779C148.736 48.3779 152.462 37.8495 158.462 37.8495C164.462 37.8495 168.154 41.678 171.846 41.678C177.385 41.678 177.385 28.7568 180.154 28.7568C182.923 28.7568 184.769 31.2414 188.462 31.2414C192.544 31.2414 195.385 19.664 205.344 19.664C216.154 19.664 225.819 1 236 1" stroke="#6241D4" stroke-width="2" stroke-linecap="round" stroke-linejoin="round"/>
<path d="M1 102C9.38454 79.9633 19.7596 83.7239 30.375 83.7239C39.6058 83.7239 39.3193 68.8144 47.627 68.8144C53.1655 68.8144 59.6045 71.282 65.8115 71.2191C72.0185 71.1563 73.3901 57.2715 84.9286 57.2715C99.238 57.2715 92.9451 40.4382 101.714 40.4382C108.637 40.4382 106.486 44.2858 117.101 44.2858C125.409 44.2858 131.165 28.7568 138.55 28.7568C147.319 28.7568 136.822 57.2715 150.206 57.2715C155.25 57.2715 160.992 71.2191 166.992 71.2191C172.992 71.2191 171.693 50.5382 175.385 50.5382C180.923 50.5382 178.649 38.5144 184.244 38.5144C189.839 38.5144 190.343 38.5144 194.036 38.5144C198.118 38.5144 196.2 34.6667 206.159 34.6667C216.969 34.6667 225.352 44.2858 235.534 44.2858" stroke="#FFD43D" stroke-width="2" stroke-linecap="round" stroke-linejoin="round"/>
<defs>
<linearGradient id="paint0_linear_5603_5976" x1="118.5" y1="-28.819" x2="118.5" y2="102" gradientUnits="userSpaceOnUse">
<stop stop-color="#9374FF"/>
<stop offset="1" stop-color="#9374FF" stop-opacity="0"/>
</linearGradient>
</defs>
</svg>
