<svg width="20" height="20" viewBox="0 0 20 20" fill="none" xmlns="http://www.w3.org/2000/svg">
<g clip-path="url(#clip0_5603_6087)">
<path d="M7.3689 10.543C6.2089 10.543 5.26807 11.4838 5.26807 12.6438V17.8988C5.26807 19.0588 6.2089 19.9996 7.3689 19.9996C8.5289 19.9996 9.46973 19.0588 9.46973 17.8988V12.6438C9.4689 11.4838 8.52806 10.543 7.3689 10.543Z" fill="#B4B6C4"/>
<path d="M0.015625 12.6435C0.015625 13.8043 0.957291 14.746 2.11812 14.746C3.27896 14.746 4.22062 13.8043 4.22062 12.6435V10.541H2.11979C2.11896 10.541 2.11896 10.541 2.11812 10.541C0.957291 10.541 0.015625 11.4827 0.015625 12.6435Z" fill="#B4B6C4"/>
<path d="M7.3716 -0.000976562C7.37077 -0.000976562 7.36993 -0.000976562 7.3691 -0.000976562C6.20827 -0.000976562 5.2666 0.94069 5.2666 2.10152C5.2666 3.26236 6.20827 4.20402 7.3691 4.20402H9.46993V2.10152C9.46993 2.10069 9.46993 2.09902 9.46993 2.09736C9.4691 0.93819 8.52993 -0.000976562 7.3716 -0.000976562Z" fill="#B4B6C4"/>
<path d="M2.10396 9.47453H7.36896C8.5298 9.47453 9.47146 8.53286 9.47146 7.37203C9.47146 6.2112 8.5298 5.26953 7.36896 5.26953H2.10396C0.943131 5.26953 0.00146484 6.2112 0.00146484 7.37203C0.00146484 8.53286 0.943131 9.47453 2.10396 9.47453Z" fill="#B4B6C4"/>
<path d="M17.8811 5.26953C16.7219 5.26953 15.7827 6.2087 15.7827 7.36786V7.37203V9.47453H17.8835C19.0444 9.47453 19.9861 8.53286 19.9861 7.37203C19.9861 6.2112 19.0444 5.26953 17.8835 5.26953C17.8827 5.26953 17.8819 5.26953 17.8811 5.26953Z" fill="#B4B6C4"/>
<path d="M10.5342 2.10181V7.37264C10.5342 8.53264 11.475 9.47348 12.635 9.47348C13.795 9.47348 14.7358 8.53264 14.7358 7.37264V2.10181C14.7358 0.94181 13.795 0.000976562 12.635 0.000976562C11.475 0.000976562 10.5342 0.94181 10.5342 2.10181Z" fill="#B4B6C4"/>
<path d="M14.7349 17.8967C14.7349 16.7367 13.794 15.7959 12.634 15.7959H10.5332V17.8984C10.534 19.0576 11.474 19.9976 12.634 19.9976C13.794 19.9976 14.7349 19.0567 14.7349 17.8967Z" fill="#B4B6C4"/>
<path d="M17.8993 10.541H12.6342C11.4734 10.541 10.5317 11.4827 10.5317 12.6435C10.5317 13.8043 11.4734 14.746 12.6342 14.746H17.8993C19.0601 14.746 20.0018 13.8043 20.0018 12.6435C20.0018 11.4827 19.0601 10.541 17.8993 10.541Z" fill="#B4B6C4"/>
</g>
<defs>
<clipPath id="clip0_5603_6087">
<rect width="20" height="20" fill="white"/>
</clipPath>
</defs>
</svg>
